<svg version="1.1" viewBox="0.0 0.0 384.0 384.0" fill="none" stroke="none" stroke-linecap="square" stroke-miterlimit="10" xmlns:xlink="http://www.w3.org/1999/xlink" xmlns="http://www.w3.org/2000/svg"><clipPath id="p.0"><path d="m0 0l384.0 0l0 384.0l-384.0 0l0 -384.0z" clip-rule="nonzero"/></clipPath><g clip-path="url(#p.0)"><path fill="#ffffff" d="m0 0l384.0 0l0 384.0l-384.0 0z" fill-rule="evenodd"/><path fill="#eaac8b" d="m-23.913385 -5.1994753l430.80316 0l0 131.33858l-430.80316 0z" fill-rule="evenodd"/><path fill="#e56b6f" d="m-15.055119 122.490814l430.80313 0l0 137.7638l-430.80313 0z" fill-rule="evenodd"/><path fill="#b56576" d="m-46.80315 257.48032l470.14175 0l0 134.99213l-470.14175 0z" fill-rule="evenodd"/><path fill="#000000" fill-opacity="0.0" d="m-0.007874016 0.007874016l384.0 0l0 384.0l-384.0 0z" fill-rule="evenodd"/><path fill="#355070" d="m42.23459 238.08788q-4.21875 0 -6.46875 -2.234375q-2.234375 -2.25 -2.234375 -6.46875l0 -72.828125q0 -4.234375 2.234375 -6.46875q2.25 -2.234375 6.46875 -2.234375l24.828125 0q22.65625 0 35.0 11.65625q12.359375 11.640625 12.359375 33.390625q0 10.890625 -3.140625 19.28125q-3.125 8.375 -9.21875 14.140625q-6.078125 5.75 -14.84375 8.765625q-8.765625 3.0 -20.15625 3.0l-24.828125 0zm7.671875 -13.5625l16.140625 0q7.921875 0 13.75 -1.984375q5.828125 -1.984375 9.734375 -5.890625q3.90625 -3.90625 5.8125 -9.859375q1.921875 -5.953125 1.921875 -13.890625q0 -15.875 -7.8125 -23.671875q-7.796875 -7.8125 -23.40625 -7.8125l-16.140625 0l0 63.109375zm107.91101 14.84375q-6.90625 0 -14.34375 -1.78125q-7.421875 -1.796875 -12.921875 -5.390625q-2.5625 -1.65625 -3.46875 -3.828125q-0.890625 -2.1875 -0.4375 -4.171875q0.453125 -1.984375 1.921875 -3.390625q1.46875 -1.40625 3.703125 -1.65625q2.25 -0.265625 4.9375 1.140625q5.25 2.828125 10.109375 4.046875q4.859375 1.203125 9.984375 1.203125q5.640625 0 9.46875 -1.53125q3.84375 -1.53125 5.828125 -4.609375q1.984375 -3.078125 1.984375 -7.421875q0 -6.40625 -4.296875 -9.53125q-4.28125 -3.140625 -12.46875 -3.140625l-8.1875 0q-3.59375 0 -5.453125 -1.796875q-1.84375 -1.796875 -1.84375 -4.984375q0 -3.203125 1.84375 -5.0q1.859375 -1.796875 5.453125 -1.796875l6.65625 0q4.859375 0 8.3125 -1.59375q3.453125 -1.59375 5.375 -4.53125q1.921875 -2.953125 1.921875 -7.171875q0 -5.890625 -3.90625 -8.96875q-3.90625 -3.078125 -11.328125 -3.078125q-4.734375 0 -8.890625 1.09375q-4.15625 1.09375 -9.15625 4.03125q-2.296875 1.40625 -4.421875 1.15625q-2.109375 -0.265625 -3.515625 -1.671875q-1.40625 -1.40625 -1.921875 -3.390625q-0.5 -1.984375 0.265625 -4.09375q0.765625 -2.109375 3.203125 -3.640625q5.5 -3.59375 12.15625 -5.4375q6.65625 -1.859375 13.6875 -1.859375q9.34375 0 16.0 2.875q6.65625 2.875 10.171875 8.1875q3.53125 5.3125 3.53125 12.875q0 5.375 -2.046875 9.796875q-2.046875 4.40625 -5.765625 7.484375q-3.703125 3.0625 -8.953125 4.34375l0 -1.53125q9.21875 1.53125 14.328125 7.609375q5.125 6.078125 5.125 15.171875q0 7.9375 -3.96875 13.828125q-3.96875 5.890625 -11.265625 9.03125q-7.296875 3.125 -17.40625 3.125zm56.190643 -0.640625q-4.359375 0 -6.984375 -2.6875q-2.609375 -2.6875 -2.609375 -6.90625q0 -4.109375 2.609375 -6.71875q2.625 -2.625 6.984375 -2.625q4.484375 0 6.96875 2.625q2.5 2.609375 2.5 6.71875q0 4.21875 -2.5 6.90625q-2.484375 2.6875 -6.96875 2.6875zm26.114624 0.25q-3.59375 0.140625 -5.640625 -1.90625q-2.046875 -2.0625 -2.046875 -5.25q0 -2.4375 1.484375 -4.296875q1.46875 -1.859375 4.28125 -1.984375l3.84375 -0.25q5.625 -0.390625 8.5 -3.515625q2.890625 -3.140625 2.890625 -9.03125l0 -57.59375q0 -4.109375 2.109375 -6.21875q2.109375 -2.109375 6.078125 -2.109375q3.96875 0 6.078125 2.109375q2.109375 2.109375 2.109375 6.21875l0 57.46875q0 8.0625 -2.875 13.703125q-2.875 5.625 -8.515625 8.765625q-5.625 3.125 -13.953125 3.640625l-4.34375 0.25zm80.37451 0.390625q-5.625 0 -11.265625 -0.84375q-5.625 -0.828125 -10.625 -2.546875q-4.984375 -1.734375 -8.953125 -4.296875q-2.296875 -1.53125 -3.203125 -3.703125q-0.890625 -2.171875 -0.578125 -4.28125q0.328125 -2.125 1.671875 -3.71875q1.34375 -1.609375 3.390625 -1.984375q2.046875 -0.390625 4.484375 1.15625q5.625 3.328125 11.890625 4.859375q6.28125 1.53125 13.1875 1.53125q10.125 0 14.71875 -3.390625q4.609375 -3.390625 4.609375 -8.765625q0 -4.484375 -3.265625 -7.03125q-3.25 -2.5625 -11.1875 -4.234375l-14.078125 -2.9375q-12.171875 -2.5625 -18.125 -8.640625q-5.9375 -6.078125 -5.9375 -16.0625q0 -6.28125 2.546875 -11.390625q2.5625 -5.125 7.234375 -8.828125q4.671875 -3.71875 11.140625 -5.703125q6.46875 -1.984375 14.265625 -1.984375q7.6875 0 14.59375 1.921875q6.921875 1.90625 12.421875 5.625q2.046875 1.40625 2.75 3.453125q0.703125 2.046875 0.3125 4.03125q-0.375 1.984375 -1.78125 3.390625q-1.40625 1.40625 -3.53125 1.671875q-2.109375 0.25 -4.796875 -1.28125q-4.734375 -2.6875 -9.59375 -3.84375q-4.859375 -1.15625 -10.5 -1.15625q-5.890625 0 -10.109375 1.671875q-4.21875 1.65625 -6.46875 4.671875q-2.234375 3.0 -2.234375 7.109375q0 4.609375 3.0625 7.359375q3.078125 2.75 10.5 4.28125l13.953125 2.953125q12.671875 2.6875 18.875 8.453125q6.21875 5.75 6.21875 15.34375q0 6.140625 -2.5 11.140625q-2.5 4.984375 -7.171875 8.578125q-4.671875 3.578125 -11.203125 5.5q-6.515625 1.921875 -14.71875 1.921875z" fill-rule="nonzero"/></g></svg>